        <svg xmlns="http://www.w3.org/2000/svg" style="display: none;" width="30px" height="30px">
			<defs>
				<symbol id="calendar-icon" viewBox="0 0 30 30">
					<g>
						<g style="opacity:0.2;">
							<path d="M22.6,6.13a2,2,0,1,1-3.92,0H11.45a2,2,0,1,1-3.92,0H5.18V24.67a1.25,1.25,0,0,0,1.25,1.25H23.71A1.25,1.25,0,0,0,25,24.67V6.13Z"/>
						</g>
						<path style="fill:#fff;" d="M23.15,5.44a2,2,0,1,1-3.92,0H12a2,2,0,1,1-3.92,0H5.73V24A1.25,1.25,0,0,0,7,25.23H24.27A1.25,1.25,0,0,0,25.51,24V5.44Z"/>
						<rect style="fill:#cecfd0;" x="13.38" y="11.06" width="4.48" height="3.49"/>
						<rect style="fill:#cecfd0;" x="18.96" y="11.06" width="4.48" height="3.49"/>
						<rect style="fill:#cecfd0;" x="7.81" y="15.43" width="4.48" height="3.49"/>
						<rect style="fill:#cecfd0;" x="13.38" y="15.43" width="4.48" height="3.49"/>
						<rect style="fill:#cecfd0;" x="18.96" y="15.43" width="4.48" height="3.49"/>
						<rect style="fill:#cecfd0;" x="7.81" y="19.81" width="4.48" height="3.49"/>
						<rect style="fill:#cecfd0;" x="13.38" y="19.81" width="4.48" height="3.49"/>
						<rect style="fill:#cecfd0;" x="18.96" y="19.81" width="4.48" height="3.49"/>
					</g>			
				</symbol>
				<symbol id="facebook-icon" viewBox="0 0 30 30">
					<path style="fill:#07407C;" d="M25.51,3.18H4.43A1.31,1.31,0,0,0,3.12,4.49V25.57a1.31,1.31,0,0,0,1.31,1.31H15.78V17.7H12.69V14.13h3.09V11.49c0-3.06,1.87-4.73,4.6-4.73a25.34,25.34,0,0,1,2.76.14v3.2H21.25c-1.49,0-1.77.71-1.77,1.74v2.28H23l-.46,3.58H19.47v9.18h6a1.31,1.31,0,0,0,1.31-1.31V4.49A1.31,1.31,0,0,0,25.51,3.18Z"/>
				</symbol>
				<symbol id="linkedin-icon" viewBox="0 0 30 30">
					<path style="fill:#07407C;" d="M23.57,23.4H20V17.75c0-1.35,0-3.08-1.88-3.08s-2.16,1.47-2.16,3V23.4H12.31V11.79h3.46v1.59h0a3.79,3.79,0,0,1,3.41-1.88c3.65,0,4.33,2.4,4.33,5.53V23.4ZM8.25,10.2a2.09,2.09,0,1,1,2.09-2.09A2.09,2.09,0,0,1,8.25,10.2Zm1.8,13.2H6.44V11.79h3.61V23.4ZM25.37,2.67H4.63a1.78,1.78,0,0,0-1.8,1.75V25.24A1.78,1.78,0,0,0,4.63,27H25.37a1.78,1.78,0,0,0,1.8-1.76V4.42a1.78,1.78,0,0,0-1.8-1.75Z"/>		
				</symbol>
				<symbol id="listserv-icon" viewBox="0 0 30 30">
					<polygon style='opacity:0.2;' points="23.27 26.28 6.59 26.28 6.59 8.13 10.57 3.97 23.27 3.97 23.27 26.28"/>
					<polygon style="fill:#fff;" points="23.86 25.6 7.18 25.6 7.18 7.45 11.16 3.29 23.86 3.29 23.86 25.6"/>
					<polyline style="fill:#cecfd0;" points="7.18 7.42 11.14 7.42 11.14 3.31"/>
					<polyline style="fill:none;stroke:#cecfd0;stroke-miterlimit:10;" points="10.05 12.37 11.51 13.82 15.23 10.1"/>
					<line style="fill:none;stroke:#cecfd0;stroke-miterlimit:10;" x1="10.22" y1="17.76" x2="13.51" y2="21.05"/>
					<line style="fill:none;stroke:#cecfd0;stroke-miterlimit:10;" x1="13.51" y1="17.76" x2="10.22" y2="21.05"/>
					<line style="fill:none;stroke:#cecfd0;stroke-miterlimit:10;" x1="15.39" y1="12.98" x2="21.19" y2="12.98"/>
					<line style="fill:none;stroke:#cecfd0;stroke-miterlimit:10;" x1="15.39" y1="19.43" x2="21.19" y2="19.43"/>
				</symbol>
				<symbol id="youtube-icon" viewBox="0 0 30 30">
					<path style="fill:#07407C;" d="M27.22,10a5.4,5.4,0,0,0-1-2.48,3.57,3.57,0,0,0-2.5-1.06C20.24,6.23,15,6.23,15,6.23h0s-5.24,0-8.73.25a3.57,3.57,0,0,0-2.5,1.06,5.39,5.39,0,0,0-1,2.48,37.72,37.72,0,0,0-.25,4v1.89a37.72,37.72,0,0,0,.25,4,5.39,5.39,0,0,0,1,2.48,4.23,4.23,0,0,0,2.75,1.07c2,.19,8.48.25,8.48.25s5.24,0,8.73-.26a3.57,3.57,0,0,0,2.5-1.06,5.4,5.4,0,0,0,1-2.48,37.78,37.78,0,0,0,.25-4V14A37.78,37.78,0,0,0,27.22,10Zm-14.8,8.22v-7l6.74,3.52Z"/>
				</symbol>
				<symbol id="mail-icon" viewBox="0 0 30 30">
					<path style="fill:#07407C;" d="M25.37,2.67H4.63a1.78,1.78,0,0,0-1.8,1.75V25.24A1.78,1.78,0,0,0,4.63,27H25.37a1.78,1.78,0,0,0,1.8-1.76V4.42A1.78,1.78,0,0,0,25.37,2.67ZM21.52,10,15,15.43,8.5,10ZM7.92,11.33,12,14.75,7.92,18.51Zm.8,8.28L13,15.67l1.66,1.4a.56.56,0,0,0,.71,0L17,15.64l4.38,4Zm13.39-1.07-4-3.65,4-3.38Z"/>
				</symbol>
				<symbol id="pdf-icon" viewBox="0 0 30 30">
					<g>
						<rect style="fill:none;stroke:#555;stroke-miterlimit:10;stroke-width:1.8px;" x="5.02" y="5" width="19.96" height="19.96"/>
						<path style="fill:#555;" d="M15.38,13.24A11.59,11.59,0,0,0,15.94,10a1.64,1.64,0,0,0-1.55-1.86A1.64,1.64,0,0,0,12.82,10a9.62,9.62,0,0,0,.57,3.3,25.38,25.38,0,0,1-1.85,4.17c-1.5.67-3.7,1.91-3.7,3.41A1.39,1.39,0,0,0,9.3,22.36c.39,0,1.56,0,3.57-3.39a19.79,19.79,0,0,1,4-1.13A6.7,6.7,0,0,0,20.52,19a1.64,1.64,0,0,0,1.81-1.61c0-.85-.67-1.7-2.17-1.7a20.67,20.67,0,0,0-2.76.19A7.5,7.5,0,0,1,15.38,13.24Zm-1.27,3.33c.15-.34.31-.68.45-1a8.89,8.89,0,0,0,.59.75Z"/>
					</g>
				</symbol>
                <symbol id="pdf-red-icon" viewBox="0 0 30 30">
					<g>
						<rect style="fill:#A12F23;" x="5.02" y="5" width="19.96" height="19.96"/>
						<path style="fill:#fff;" d="M15.38,13.24A11.59,11.59,0,0,0,15.94,10a1.64,1.64,0,0,0-1.55-1.86A1.64,1.64,0,0,0,12.82,10a9.62,9.62,0,0,0,.57,3.3,25.38,25.38,0,0,1-1.85,4.17c-1.5.67-3.7,1.91-3.7,3.41A1.39,1.39,0,0,0,9.3,22.36c.39,0,1.56,0,3.57-3.39a19.79,19.79,0,0,1,4-1.13A6.7,6.7,0,0,0,20.52,19a1.64,1.64,0,0,0,1.81-1.61c0-.85-.67-1.7-2.17-1.7a20.67,20.67,0,0,0-2.76.19A7.5,7.5,0,0,1,15.38,13.24Zm-1.27,3.33c.15-.34.31-.68.45-1a8.89,8.89,0,0,0,.59.75Z"/>
					</g>
				</symbol>
                <symbol id="flipBook-icon" viewBox="0 0 30 30">
					<g id="pdf_icon" data-name="pdf icon">
						<polygon points="20.79 24.96 5.02 24.96 5.02 5 24.98 5 24.98 21.2 20.79 24.96" style="fill:#e44d26"/>
					</g>
					<polygon points="20.79 8.42 9.04 8.42 9.65 15.65 17.81 15.65 17.61 18.63 14.95 19.44 12.26 18.63 12.26 16.83 9.73 16.83 10.1 20.48 14.91 21.98 19.81 20.48 20.34 13.24 11.89 13.24 11.73 10.87 20.55 10.87 20.79 8.42" style="fill:#fff"/>
					<polygon points="20.79 24.96 24.98 21.2 20.79 21.2 20.79 24.96" style="fill:#f16529"/>
				</symbol>
				<symbol id="phone-icon" viewBox="0 0 30 30">
					<path style="fill:#07407C;" d="M25.37,2.67H4.63a1.78,1.78,0,0,0-1.8,1.75V25.24A1.78,1.78,0,0,0,4.63,27H25.37a1.78,1.78,0,0,0,1.8-1.76V4.42A1.78,1.78,0,0,0,25.37,2.67ZM21,19.62s-1.31,1.81-2.05,1.81h0c-2.11-.07-4.59-2.11-6.29-3.82s-3.75-4.18-3.82-6.28c0-.75,1.79-2.07,1.81-2.08a.92.92,0,0,1,1.24.09c.14.2,1.51,2.27,1.66,2.51a1,1,0,0,1-.06,1c-.1.2-.45.8-.62,1.1a14.79,14.79,0,0,0,1.61,1.83,14.73,14.73,0,0,0,1.83,1.61l1.1-.62a1,1,0,0,1,1-.06c.25.16,2.32,1.53,2.51,1.66A.89.89,0,0,1,21,19.62Z"/>
				</symbol>
				<symbol id="user-icon" viewBox="0 0 30 30">				
					<g>
						<g style="opacity:0.2;">
							<circle cx="14.8" cy="11.13" r="5.23"/>
							<path d="M5.61,25H24A9.19,9.19,0,0,0,5.61,25Z"/>
						</g>
						<circle style="fill:#fff;" cx="14.98" cy="10.61" r="5.23"/>
						<path style="fill:#fff;" d="M5.8,24.44H24.17a9.19,9.19,0,0,0-18.37,0Z"/>
					</g>
				</symbol>
				<symbol id="spyglass-icon" viewBox="0 0 30 30">
					<g id="spyglass">
						<g style="opacity:0.2;">
							<path d="M12,18.81A6.84,6.84,0,1,1,18.81,12,6.85,6.85,0,0,1,12,18.81ZM12,6.13A5.83,5.83,0,1,0,17.81,12,5.84,5.84,0,0,0,12,6.13Z"/>
						</g>
						<g style="opacity:0.2;">
							<path d="M26,25.15a1.7,1.7,0,0,1-2.49-.06l-7.5-8.49.68-.74,9.11,6.74a1.7,1.7,0,0,1,.2,2.55Z"/>
						</g>
						<g>
							<path style="fill:#fff;" d="M11.75,17.89a6.84,6.84,0,1,1,6.84-6.84A6.85,6.85,0,0,1,11.75,17.89Zm0-12.67a5.83,5.83,0,1,0,5.83,5.83A5.84,5.84,0,0,0,11.75,5.22Z"/>
							<path style="fill:#fff;" d="M25.82,24.24a1.7,1.7,0,0,1-2.49-.06l-7.5-8.49.68-.74,9.11,6.74a1.7,1.7,0,0,1,.2,2.55Z"/>
							<circle style="opacity:0.2;fill:#fff;" cx="11.75" cy="11.05" r="5.93"/>
						</g>
					</g>
				</symbol>
				<symbol id="w-facebook-icon" viewBox="0 0 30 30">
					<path style="fill:#fff;" d="M25.51,3.3H4.43A1.31,1.31,0,0,0,3.12,4.6V25.69A1.31,1.31,0,0,0,4.43,27H15.78V17.82H12.69V14.24h3.09V11.6c0-3.06,1.87-4.73,4.6-4.73A25.34,25.34,0,0,1,23.14,7v3.2H21.25c-1.49,0-1.77.71-1.77,1.74v2.28H23l-.46,3.58H19.47V27h6a1.31,1.31,0,0,0,1.31-1.31V4.6A1.31,1.31,0,0,0,25.51,3.3Z"/>
				</symbol>
				<symbol id="w-linkedin-icon" viewBox="0 0 30 30">
					<path style="fill:#fff;" d="M23.57,23.52H20V17.87c0-1.35,0-3.08-1.88-3.08s-2.16,1.47-2.16,3v5.74H12.31V11.91h3.46v1.59h0a3.79,3.79,0,0,1,3.41-1.88c3.65,0,4.33,2.4,4.33,5.53v6.37ZM8.25,10.32a2.09,2.09,0,1,1,2.09-2.09,2.09,2.09,0,0,1-2.09,2.09Zm1.8,13.2H6.44V11.91h3.61V23.52ZM25.37,2.78H4.63a1.78,1.78,0,0,0-1.8,1.75V25.36a1.78,1.78,0,0,0,1.8,1.76H25.37a1.78,1.78,0,0,0,1.8-1.76V4.54a1.78,1.78,0,0,0-1.8-1.75Z"/>		
				</symbol>
				<symbol id="w-youtube-icon" viewBox="0 0 30 30">
					<path style="fill:#fff;" d="M12.42,19.1v-7l6.74,3.52L12.42,19.1Zm14.8-8.22a5.4,5.4,0,0,0-1-2.48,3.57,3.57,0,0,0-2.5-1.06C20.24,7.09,15,7.09,15,7.09h0s-5.24,0-8.73.25A3.57,3.57,0,0,0,3.77,8.4a5.4,5.4,0,0,0-1,2.48,37.73,37.73,0,0,0-.25,4v1.89a37.73,37.73,0,0,0,.25,4,5.4,5.4,0,0,0,1,2.48,4.23,4.23,0,0,0,2.75,1.07c2,.19,8.48.25,8.48.25s5.24,0,8.73-.26a3.57,3.57,0,0,0,2.5-1.06,5.4,5.4,0,0,0,1-2.48,37.78,37.78,0,0,0,.25-4V14.91a37.78,37.78,0,0,0-.25-4Z"/>
				</symbol>
				<symbol id="forgot-icon" viewBox="0 0 30 30">
					<path style="opacity:0.2;" d="M23.29,22l-4-7-4-7a1,1,0,0,0-1.73,0l-4,7-4,7a1,1,0,0,0,.87,1.5H22.42A1,1,0,0,0,23.29,22Zm-8.06-.08H13.38V20.12h1.84Zm1.9-5.39a2.29,2.29,0,0,1-.36.62,2.44,2.44,0,0,1-.48.44l-.5.36a2.31,2.31,0,0,0-.42.42,1.19,1.19,0,0,0-.23.59v.45H13.55v-.53a2.41,2.41,0,0,1,.19-.84,2.44,2.44,0,0,1,.37-.58,3,3,0,0,1,.45-.42L15,16.7a1.59,1.59,0,0,0,.32-.39,1,1,0,0,0,.11-.53,1.07,1.07,0,0,0-.26-.8,1,1,0,0,0-.73-.26,1.14,1.14,0,0,0-.55.12,1.09,1.09,0,0,0-.38.33,1.42,1.42,0,0,0-.22.48,2.38,2.38,0,0,0-.07.59H11.49a3.34,3.34,0,0,1,.22-1.16,2.75,2.75,0,0,1,.58-.92,2.59,2.59,0,0,1,.89-.6,3,3,0,0,1,1.17-.22,3.67,3.67,0,0,1,1.39.23,2.7,2.7,0,0,1,.9.57,2.06,2.06,0,0,1,.49.73,2.1,2.1,0,0,1,.15.73A2.5,2.5,0,0,1,17.12,16.54Z"/>
					<path style="fill:#fff;" d="M23.91,21.46l-4-7-4-7a1,1,0,0,0-1.73,0l-4,7-4,7A1,1,0,0,0,7,23H23A1,1,0,0,0,23.91,21.46Zm-8.06-.08H14V19.57h1.84ZM17.74,16a2.29,2.29,0,0,1-.36.62,2.44,2.44,0,0,1-.48.44l-.5.36a2.31,2.31,0,0,0-.42.42,1.19,1.19,0,0,0-.23.59v.45H14.17v-.53a2.41,2.41,0,0,1,.19-.84,2.44,2.44,0,0,1,.37-.58,3,3,0,0,1,.45-.42l.43-.35a1.59,1.59,0,0,0,.32-.39,1,1,0,0,0,.11-.53,1.07,1.07,0,0,0-.26-.8,1,1,0,0,0-.73-.26,1.14,1.14,0,0,0-.55.12,1.09,1.09,0,0,0-.38.33,1.42,1.42,0,0,0-.22.48,2.38,2.38,0,0,0-.07.59H12.11a3.34,3.34,0,0,1,.22-1.16,2.75,2.75,0,0,1,.58-.92,2.59,2.59,0,0,1,.89-.6A3,3,0,0,1,15,12.8a3.67,3.67,0,0,1,1.39.23,2.7,2.7,0,0,1,.9.57,2.06,2.06,0,0,1,.49.73,2.1,2.1,0,0,1,.15.73A2.5,2.5,0,0,1,17.74,16Z"/>
				</symbol>
				<symbol id="login-icon" viewBox="0 0 30 30">
					<path style="opacity:0.2;" d="M22.58,13.94H14.8V11.53s-.45-4.36-4.88-4.36-4.83,4.36-4.83,4.36v3.06s.06.62,1,.62,1.06-.69,1.06-.69v-3A2.77,2.77,0,0,1,10,9a2.8,2.8,0,0,1,2.82,2.52v2.4h-.55a.79.79,0,0,0-.78.78v8.94a.75.75,0,0,0,.78.73H22.85a.74.74,0,0,0,.76-.75V14.78C23.61,14.35,23,13.94,22.58,13.94Z"/>
					<path style="fill:#fff;" d="M23.23,13.25H15.45V10.83S15,6.48,10.57,6.48s-4.83,4.36-4.83,4.36v3.06s.06.62,1,.62,1.06-.69,1.06-.69v-3a2.77,2.77,0,0,1,2.79-2.52,2.8,2.8,0,0,1,2.82,2.52v2.4H12.9a.79.79,0,0,0-.78.78V23a.75.75,0,0,0,.78.73H23.5a.74.74,0,0,0,.76-.75V14.08C24.26,13.66,23.66,13.25,23.23,13.25Z"/>
				</symbol>
				<symbol id="logoff-icon" viewBox="0 0 30 30">
					<g style="opacity:0.2">
						<path d="M20,13.19h-.29V11A4.78,4.78,0,0,0,14.85,6.6,4.85,4.85,0,0,0,10,11v2.24H9.63a.8.8,0,0,0-.78.79v8.94a.75.75,0,0,0,.78.73H20.24A.74.74,0,0,0,21,22.9V14C21,13.61,20.39,13.19,20,13.19ZM12,11a2.8,2.8,0,0,1,2.81-2.52A2.75,2.75,0,0,1,17.57,11v2.22H12Z"/>
					</g>
					<path d="M20.43,12.55h-.29V10.31A4.78,4.78,0,0,0,15.31,6a4.85,4.85,0,0,0-4.88,4.35v2.24h-.34a.8.8,0,0,0-.78.79v8.94a.75.75,0,0,0,.78.73H20.7a.74.74,0,0,0,.75-.75V13.39C21.45,13,20.85,12.55,20.43,12.55Zm-8-2.22a2.8,2.8,0,0,1,2.81-2.52A2.77,2.77,0,0,1,18,10.33v2.22h-5.6Z" style="fill:#fff"/>
				</symbol>				
				<symbol id="alert-icon" viewBox="0 0 10 45">
					<g>
						<path style="fill:#d88430;" d="M5.09,19.79A2.71,2.71,0,1,0,7.8,22.5,2.71,2.71,0,0,0,5.09,19.79Zm0,4.93A2.21,2.21,0,1,1,7.3,22.5,2.22,2.22,0,0,1,5.09,24.71Z"/>
						<polygon style="fill:#d88430;" points="5.25 23.11 5.31 20.98 4.89 20.98 4.95 23.11 5.25 23.11"/>
						<path style="fill:#d88430;" d="M5.1,23.47a.28.28,0,0,0,0,.55.28.28,0,0,0,0-.55Z"/>
					</g>
				</symbol>
				<symbol id="on-icon" viewBox="0 0 10 45">
					<circle style="fill:#fff;opacity:0.8;" cx="5" cy="22.5" r="2.71"/>
				</symbol>
				<symbol id="under-icon" viewBox="0 0 10 45">
					<path style="fill:#fff;opacity:0.8;" d="M5.09,19.79A2.71,2.71,0,1,0,7.8,22.5,2.71,2.71,0,0,0,5.09,19.79Zm0,4.93A2.21,2.21,0,1,1,7.3,22.5,2.22,2.22,0,0,1,5.09,24.71Z"/>
				</symbol>
				<symbol id="x-icon" viewBox="0 0 30 45">
					<path style="fill:#fff;opacity:0.8;" d="M15.69,21.81V15.3a.69.69,0,0,0-1.38,0v6.51H7.8a.69.69,0,0,0,0,1.38h6.51V29.7a.69.69,0,1,0,1.38,0V23.19H22.2a.69.69,0,0,0,0-1.38Z"/>
				</symbol>
				<symbol id="x-dark-icon" viewBox="0 0 30 45">
					<path style="fill:#07407C;" d="M15.69,21.81V15.3a.69.69,0,0,0-1.38,0v6.51H7.8a.69.69,0,0,0,0,1.38h6.51V29.7a.69.69,0,1,0,1.38,0V23.19H22.2a.69.69,0,0,0,0-1.38Z"/>
				</symbol>
                <symbol id="globe-icon" viewBox="0 0 30 30">
                    <path d="M26.13,15A11.15,11.15,0,0,0,15.62,3.88l0,0,0,0H14.43l0,0,0,0a11.13,11.13,0,0,0,.34,22.25l0,0v0h.49v0l0,0A11.15,11.15,0,0,0,26.13,15Zm-21.57.38h4a13.32,13.32,0,0,0,.88,4.31H5.67a10.37,10.37,0,0,1-1.11-4.31Zm20.87-.77h-4a13.3,13.3,0,0,0-.81-4.31h3.69a10.37,10.37,0,0,1,1.11,4.31Zm-4.75,0h-5.3V10.3h4.43a12.53,12.53,0,0,1,.87,4.31Zm-5.3-5.08V4.65a12.55,12.55,0,0,1,4.1,4.89Zm-.77.77v4.31H9.32a12.53,12.53,0,0,1,.87-4.31Zm-4.1-.77a12.55,12.55,0,0,1,4.1-4.89V9.54Zm-2,5.08h-4A10.37,10.37,0,0,1,5.67,10.3H9.36a13.3,13.3,0,0,0-.81,4.31Zm.77.77h5.29v4.31H10.26a12.54,12.54,0,0,1-.94-4.31Zm5.29,5.08v4.68a12.52,12.52,0,0,1-4-4.68Zm.77,0h4a12.52,12.52,0,0,1-4,4.68V20.46Zm0-.77V15.38h5.29a12.54,12.54,0,0,1-.94,4.31Zm6.06-4.31h4a10.37,10.37,0,0,1-1.11,4.31H20.56a13.32,13.32,0,0,0,.88-4.31Zm4-.28v-.21s0,.07,0,.11,0,.07,0,.11ZM23.9,9.54H20.33a13.31,13.31,0,0,0-3.64-4.85A10.47,10.47,0,0,1,23.9,9.54Zm-8.8-5h0Zm-1.79.14A13.31,13.31,0,0,0,9.67,9.54H6.1a10.47,10.47,0,0,1,7.21-4.85ZM4.56,14.89v.21s0-.07,0-.11,0-.07,0-.11ZM6.1,20.46H9.76a13.25,13.25,0,0,0,3.86,4.89A10.46,10.46,0,0,1,6.1,20.46Zm10.28,4.89a13.25,13.25,0,0,0,3.86-4.89H23.9a10.46,10.46,0,0,1-7.52,4.89Z" style="fill:#0c8c5e"/>
                </symbol>
                <symbol id="photo-icon" viewBox="0 0 30 30">
					<g>
						<polygon points="25.71 8.27 25.71 24.76 7.77 24.76 7.77 8.27 25.71 8.27 25.71 8.27" style="fill:#fff"/>
						<rect x="9.16" y="9.55" width="15.16" height="13.94" style="fill:#cecfd0"/>
						<polygon points="22.23 4.79 22.23 21.28 4.29 21.28 4.29 4.79 22.23 4.79 22.23 4.79" style="fill:#fff"/>
						<rect x="5.68" y="6.06" width="15.16" height="13.94" style="fill:#BADBFF"/>
						<path d="M6.75,19.05s.08-7,3.36-7,3.59,5.25,3.59,5.25.87-2.64,3-2.64,2.72,4.36,2.72,4.36Z" style="fill:#3D8263"/>
						<path d="M17.38,9.66a1.29,1.29,0,1,1-1.29-1.29,1.29,1.29,0,0,1,1.29,1.29Z" style="fill:#FFF9D7"/>
					</g>
				</symbol>
			</defs>
		</svg>
